<mxfile host="app.diagrams.net" modified="2023-04-03T15:53:54.284Z" agent="Mozilla/5.0 (Macintosh; Intel Mac OS X 10_15_7) AppleWebKit/605.1.15 (KHTML, like Gecko) Version/16.3 Safari/605.1.15" etag="FSCKmHUrOc18BVZh5FVo" version="21.1.2" type="github">
  <diagram id="hzEAwRfSKZhIvilCKF2D" name="Page-1">
    <mxGraphModel dx="1007" dy="679" grid="1" gridSize="10" guides="1" tooltips="1" connect="1" arrows="1" fold="1" page="1" pageScale="1" pageWidth="827" pageHeight="1169" math="0" shadow="0">
      <root>
        <mxCell id="0" />
        <mxCell id="1" parent="0" />
        <mxCell id="ZKvzLZxg7eLcZTsnlfB9-11" value="" style="group;fontSize=16;" parent="1" vertex="1" connectable="0">
          <mxGeometry x="140" y="60" width="160.63999999999987" height="220" as="geometry" />
        </mxCell>
        <mxCell id="ZKvzLZxg7eLcZTsnlfB9-2" value="" style="rounded=1;whiteSpace=wrap;html=1;fontSize=16;" parent="ZKvzLZxg7eLcZTsnlfB9-11" vertex="1">
          <mxGeometry width="160" height="220" as="geometry" />
        </mxCell>
        <mxCell id="ZKvzLZxg7eLcZTsnlfB9-3" value="Client Function" style="rounded=0;whiteSpace=wrap;html=1;fontSize=16;" parent="ZKvzLZxg7eLcZTsnlfB9-11" vertex="1">
          <mxGeometry x="20" y="20" width="120" height="40" as="geometry" />
        </mxCell>
        <mxCell id="ZKvzLZxg7eLcZTsnlfB9-4" value="Client Stub" style="rounded=0;whiteSpace=wrap;html=1;fontSize=16;" parent="ZKvzLZxg7eLcZTsnlfB9-11" vertex="1">
          <mxGeometry x="20" y="88" width="120" height="40" as="geometry" />
        </mxCell>
        <mxCell id="ZKvzLZxg7eLcZTsnlfB9-5" value="sockets" style="rounded=0;whiteSpace=wrap;html=1;fontSize=16;" parent="ZKvzLZxg7eLcZTsnlfB9-11" vertex="1">
          <mxGeometry x="20" y="163" width="120" height="40" as="geometry" />
        </mxCell>
        <mxCell id="ZKvzLZxg7eLcZTsnlfB9-6" value="Kernel" style="endArrow=none;dashed=1;html=1;rounded=0;entryX=1.004;entryY=0.682;entryDx=0;entryDy=0;entryPerimeter=0;fontSize=16;" parent="ZKvzLZxg7eLcZTsnlfB9-11" edge="1">
          <mxGeometry width="50" height="50" relative="1" as="geometry">
            <mxPoint y="148" as="sourcePoint" />
            <mxPoint x="160.63999999999987" y="148.03999999999996" as="targetPoint" />
          </mxGeometry>
        </mxCell>
        <mxCell id="ZKvzLZxg7eLcZTsnlfB9-7" value="" style="endArrow=classic;html=1;rounded=0;exitX=0.25;exitY=1;exitDx=0;exitDy=0;entryX=0.25;entryY=0;entryDx=0;entryDy=0;fontSize=16;" parent="ZKvzLZxg7eLcZTsnlfB9-11" source="ZKvzLZxg7eLcZTsnlfB9-3" target="ZKvzLZxg7eLcZTsnlfB9-4" edge="1">
          <mxGeometry width="50" height="50" relative="1" as="geometry">
            <mxPoint x="240" y="190" as="sourcePoint" />
            <mxPoint x="290" y="140" as="targetPoint" />
          </mxGeometry>
        </mxCell>
        <mxCell id="ZKvzLZxg7eLcZTsnlfB9-24" value="1" style="edgeLabel;html=1;align=center;verticalAlign=middle;resizable=0;points=[];fontSize=16;" parent="ZKvzLZxg7eLcZTsnlfB9-7" vertex="1" connectable="0">
          <mxGeometry x="-0.2619" relative="1" as="geometry">
            <mxPoint as="offset" />
          </mxGeometry>
        </mxCell>
        <mxCell id="ZKvzLZxg7eLcZTsnlfB9-8" value="" style="endArrow=classic;html=1;rounded=0;exitX=0.25;exitY=1;exitDx=0;exitDy=0;entryX=0.25;entryY=0;entryDx=0;entryDy=0;fontSize=16;" parent="ZKvzLZxg7eLcZTsnlfB9-11" target="ZKvzLZxg7eLcZTsnlfB9-5" edge="1">
          <mxGeometry width="50" height="50" relative="1" as="geometry">
            <mxPoint x="50" y="128" as="sourcePoint" />
            <mxPoint x="50" y="160" as="targetPoint" />
          </mxGeometry>
        </mxCell>
        <mxCell id="ZKvzLZxg7eLcZTsnlfB9-25" value="2" style="edgeLabel;html=1;align=center;verticalAlign=middle;resizable=0;points=[];fontSize=16;" parent="ZKvzLZxg7eLcZTsnlfB9-8" vertex="1" connectable="0">
          <mxGeometry x="-0.2952" y="-1" relative="1" as="geometry">
            <mxPoint as="offset" />
          </mxGeometry>
        </mxCell>
        <mxCell id="ZKvzLZxg7eLcZTsnlfB9-9" value="" style="endArrow=classic;html=1;rounded=0;exitX=0.75;exitY=0;exitDx=0;exitDy=0;entryX=0.75;entryY=1;entryDx=0;entryDy=0;fontSize=16;" parent="ZKvzLZxg7eLcZTsnlfB9-11" source="ZKvzLZxg7eLcZTsnlfB9-5" target="ZKvzLZxg7eLcZTsnlfB9-4" edge="1">
          <mxGeometry width="50" height="50" relative="1" as="geometry">
            <mxPoint x="240" y="190" as="sourcePoint" />
            <mxPoint x="290" y="140" as="targetPoint" />
          </mxGeometry>
        </mxCell>
        <mxCell id="ZKvzLZxg7eLcZTsnlfB9-30" value="9" style="edgeLabel;html=1;align=center;verticalAlign=middle;resizable=0;points=[];fontSize=16;" parent="ZKvzLZxg7eLcZTsnlfB9-9" vertex="1" connectable="0">
          <mxGeometry x="0.0095" y="1" relative="1" as="geometry">
            <mxPoint as="offset" />
          </mxGeometry>
        </mxCell>
        <mxCell id="ZKvzLZxg7eLcZTsnlfB9-10" value="" style="endArrow=classic;html=1;rounded=0;exitX=0.75;exitY=0;exitDx=0;exitDy=0;fontSize=16;" parent="ZKvzLZxg7eLcZTsnlfB9-11" edge="1">
          <mxGeometry width="50" height="50" relative="1" as="geometry">
            <mxPoint x="110" y="88" as="sourcePoint" />
            <mxPoint x="110" y="60" as="targetPoint" />
          </mxGeometry>
        </mxCell>
        <mxCell id="ZKvzLZxg7eLcZTsnlfB9-31" value="10" style="edgeLabel;html=1;align=center;verticalAlign=middle;resizable=0;points=[];fontSize=16;" parent="ZKvzLZxg7eLcZTsnlfB9-10" vertex="1" connectable="0">
          <mxGeometry x="-0.0952" y="-1" relative="1" as="geometry">
            <mxPoint as="offset" />
          </mxGeometry>
        </mxCell>
        <mxCell id="ZKvzLZxg7eLcZTsnlfB9-12" value="" style="group;fontSize=16;" parent="1" vertex="1" connectable="0">
          <mxGeometry x="390" y="60" width="160.63999999999987" height="220" as="geometry" />
        </mxCell>
        <mxCell id="ZKvzLZxg7eLcZTsnlfB9-13" value="" style="rounded=1;whiteSpace=wrap;html=1;fontSize=16;" parent="ZKvzLZxg7eLcZTsnlfB9-12" vertex="1">
          <mxGeometry width="160" height="220" as="geometry" />
        </mxCell>
        <mxCell id="ZKvzLZxg7eLcZTsnlfB9-14" value="Server Function" style="rounded=0;whiteSpace=wrap;html=1;fontSize=16;" parent="ZKvzLZxg7eLcZTsnlfB9-12" vertex="1">
          <mxGeometry x="20" y="20" width="120" height="40" as="geometry" />
        </mxCell>
        <mxCell id="ZKvzLZxg7eLcZTsnlfB9-15" value="Server Stub" style="rounded=0;whiteSpace=wrap;html=1;fontSize=16;" parent="ZKvzLZxg7eLcZTsnlfB9-12" vertex="1">
          <mxGeometry x="20" y="88" width="120" height="40" as="geometry" />
        </mxCell>
        <mxCell id="ZKvzLZxg7eLcZTsnlfB9-16" value="sockets" style="rounded=0;whiteSpace=wrap;html=1;fontSize=16;" parent="ZKvzLZxg7eLcZTsnlfB9-12" vertex="1">
          <mxGeometry x="20" y="163" width="120" height="40" as="geometry" />
        </mxCell>
        <mxCell id="ZKvzLZxg7eLcZTsnlfB9-17" value="Kernel" style="endArrow=none;dashed=1;html=1;rounded=0;entryX=1.004;entryY=0.682;entryDx=0;entryDy=0;entryPerimeter=0;fontSize=16;" parent="ZKvzLZxg7eLcZTsnlfB9-12" edge="1">
          <mxGeometry width="50" height="50" relative="1" as="geometry">
            <mxPoint y="148" as="sourcePoint" />
            <mxPoint x="160.63999999999987" y="148.03999999999996" as="targetPoint" />
          </mxGeometry>
        </mxCell>
        <mxCell id="ZKvzLZxg7eLcZTsnlfB9-18" value="" style="endArrow=classic;html=1;rounded=0;exitX=0.25;exitY=1;exitDx=0;exitDy=0;entryX=0.25;entryY=0;entryDx=0;entryDy=0;fontSize=16;" parent="ZKvzLZxg7eLcZTsnlfB9-12" edge="1">
          <mxGeometry width="50" height="50" relative="1" as="geometry">
            <mxPoint x="111" y="60" as="sourcePoint" />
            <mxPoint x="111" y="88" as="targetPoint" />
          </mxGeometry>
        </mxCell>
        <mxCell id="ZKvzLZxg7eLcZTsnlfB9-26" value="6" style="edgeLabel;html=1;align=center;verticalAlign=middle;resizable=0;points=[];fontSize=16;" parent="ZKvzLZxg7eLcZTsnlfB9-18" vertex="1" connectable="0">
          <mxGeometry x="-0.1905" relative="1" as="geometry">
            <mxPoint as="offset" />
          </mxGeometry>
        </mxCell>
        <mxCell id="ZKvzLZxg7eLcZTsnlfB9-20" value="4" style="endArrow=classic;html=1;rounded=0;exitX=0.75;exitY=0;exitDx=0;exitDy=0;entryX=0.75;entryY=1;entryDx=0;entryDy=0;fontSize=16;" parent="ZKvzLZxg7eLcZTsnlfB9-12" edge="1">
          <mxGeometry width="50" height="50" relative="1" as="geometry">
            <mxPoint x="49" y="163" as="sourcePoint" />
            <mxPoint x="49" y="128" as="targetPoint" />
          </mxGeometry>
        </mxCell>
        <mxCell id="ZKvzLZxg7eLcZTsnlfB9-21" value="5" style="endArrow=classic;html=1;rounded=0;exitX=0.75;exitY=0;exitDx=0;exitDy=0;fontSize=16;" parent="ZKvzLZxg7eLcZTsnlfB9-12" edge="1">
          <mxGeometry width="50" height="50" relative="1" as="geometry">
            <mxPoint x="48" y="88" as="sourcePoint" />
            <mxPoint x="48" y="60" as="targetPoint" />
          </mxGeometry>
        </mxCell>
        <mxCell id="ZKvzLZxg7eLcZTsnlfB9-28" value="7" style="endArrow=classic;html=1;rounded=0;fontSize=16;" parent="ZKvzLZxg7eLcZTsnlfB9-12" edge="1">
          <mxGeometry width="50" height="50" relative="1" as="geometry">
            <mxPoint x="113" y="130" as="sourcePoint" />
            <mxPoint x="113" y="163" as="targetPoint" />
          </mxGeometry>
        </mxCell>
        <mxCell id="ZKvzLZxg7eLcZTsnlfB9-22" value="3" style="endArrow=classic;html=1;rounded=0;exitX=1;exitY=0.25;exitDx=0;exitDy=0;entryX=0;entryY=0.25;entryDx=0;entryDy=0;fontSize=16;" parent="1" source="ZKvzLZxg7eLcZTsnlfB9-5" target="ZKvzLZxg7eLcZTsnlfB9-16" edge="1">
          <mxGeometry width="50" height="50" relative="1" as="geometry">
            <mxPoint x="310" y="235" as="sourcePoint" />
            <mxPoint x="310" y="200" as="targetPoint" />
          </mxGeometry>
        </mxCell>
        <mxCell id="ZKvzLZxg7eLcZTsnlfB9-23" value="8" style="endArrow=classic;html=1;rounded=0;entryX=1;entryY=0.75;entryDx=0;entryDy=0;exitX=0;exitY=0.75;exitDx=0;exitDy=0;fontSize=16;" parent="1" source="ZKvzLZxg7eLcZTsnlfB9-16" target="ZKvzLZxg7eLcZTsnlfB9-5" edge="1">
          <mxGeometry width="50" height="50" relative="1" as="geometry">
            <mxPoint x="370" y="320" as="sourcePoint" />
            <mxPoint x="420" y="243" as="targetPoint" />
          </mxGeometry>
        </mxCell>
      </root>
    </mxGraphModel>
  </diagram>
</mxfile>
